<svg xmlns="http://www.w3.org/2000/svg" xmlns:xlink="http://www.w3.org/1999/xlink" width="500" zoomAndPan="magnify" viewBox="0 0 375 374.999991" height="500" preserveAspectRatio="xMidYMid meet" version="1.0"><defs><filter x="0%" y="0%" width="100%" height="100%" id="c159d6c86f"><feColorMatrix values="0 0 0 0 1 0 0 0 0 1 0 0 0 0 1 0 0 0 1 0" color-interpolation-filters="sRGB"/></filter><clipPath id="e6ab463b09"><path d="M 24 32 L 351.65625 32 L 351.65625 356.347656 L 24 356.347656 Z M 24 32 " clip-rule="nonzero"/></clipPath><mask id="0de873ae75"><g filter="url(#c159d6c86f)"><rect x="-37.5" width="450" fill="#000000" y="-37.499999" height="449.999989" fill-opacity="0.8"/></g></mask><clipPath id="61ca335406"><path d="M 10 17 L 327.65625 17 L 327.65625 320 L 10 320 Z M 10 17 " clip-rule="nonzero"/></clipPath><clipPath id="beefe4eccc"><path d="M 82 301 L 154 301 L 154 324.347656 L 82 324.347656 Z M 82 301 " clip-rule="nonzero"/></clipPath><clipPath id="f2c87328dd"><path d="M 0.238281 0.398438 L 258 0.398438 L 258 297 L 0.238281 297 Z M 0.238281 0.398438 " clip-rule="nonzero"/></clipPath><clipPath id="d45ec83cfa"><rect x="0" width="328" y="0" height="325"/></clipPath><clipPath id="ab0cc30339"><path d="M 69 94 L 265 94 L 265 325 L 69 325 Z M 69 94 " clip-rule="nonzero"/></clipPath><clipPath id="5f031fb158"><path d="M 47.628906 123.21875 L 105.628906 74.496094 L 290.386719 294.445312 L 232.382812 343.167969 Z M 47.628906 123.21875 " clip-rule="nonzero"/></clipPath><clipPath id="3ef1460170"><path d="M 47.628906 123.21875 L 105.628906 74.496094 L 290.386719 294.445312 L 232.382812 343.167969 Z M 47.628906 123.21875 " clip-rule="nonzero"/></clipPath><clipPath id="feeb44dabd"><path d="M 89 184 L 228 184 L 228 318 L 89 318 Z M 89 184 " clip-rule="nonzero"/></clipPath><clipPath id="51e7b3cf10"><path d="M 89.242188 317.148438 L 280.222656 86.761719 L 311.980469 113.089844 L 121 343.472656 Z M 89.242188 317.148438 " clip-rule="nonzero"/></clipPath><clipPath id="499d853443"><path d="M 89.242188 317.148438 L 280.222656 86.761719 L 311.980469 113.089844 L 121 343.472656 Z M 89.242188 317.148438 " clip-rule="nonzero"/></clipPath><clipPath id="48daf87bd5"><path d="M 89.242188 317.148438 L 280.222656 86.761719 L 311.980469 113.089844 L 121 343.472656 Z M 89.242188 317.148438 " clip-rule="nonzero"/></clipPath><clipPath id="13b244f532"><path d="M 201 99 L 292 99 L 292 192 L 201 192 Z M 201 99 " clip-rule="nonzero"/></clipPath><clipPath id="ee4e687e0b"><path d="M 89.242188 317.148438 L 280.222656 86.761719 L 311.980469 113.089844 L 121 343.472656 Z M 89.242188 317.148438 " clip-rule="nonzero"/></clipPath><clipPath id="0dc242e95d"><path d="M 89.242188 317.148438 L 280.222656 86.761719 L 311.980469 113.089844 L 121 343.472656 Z M 89.242188 317.148438 " clip-rule="nonzero"/></clipPath><clipPath id="3b13d9e8c1"><path d="M 89.242188 317.148438 L 280.222656 86.761719 L 311.980469 113.089844 L 121 343.472656 Z M 89.242188 317.148438 " clip-rule="nonzero"/></clipPath><clipPath id="b42c9ad6de"><path d="M 213 171 L 222 171 L 222 179 L 213 179 Z M 213 171 " clip-rule="nonzero"/></clipPath><clipPath id="e701ffc09a"><path d="M 89.242188 317.148438 L 280.222656 86.761719 L 311.980469 113.089844 L 121 343.472656 Z M 89.242188 317.148438 " clip-rule="nonzero"/></clipPath><clipPath id="3e853e1c7a"><path d="M 89.242188 317.148438 L 280.222656 86.761719 L 311.980469 113.089844 L 121 343.472656 Z M 89.242188 317.148438 " clip-rule="nonzero"/></clipPath><clipPath id="52a7c0b9b5"><path d="M 89.242188 317.148438 L 280.222656 86.761719 L 311.980469 113.089844 L 121 343.472656 Z M 89.242188 317.148438 " clip-rule="nonzero"/></clipPath><clipPath id="ec113690a0"><path d="M 226 156 L 234 156 L 234 164 L 226 164 Z M 226 156 " clip-rule="nonzero"/></clipPath><clipPath id="ec2da1162c"><path d="M 89.242188 317.148438 L 280.222656 86.761719 L 311.980469 113.089844 L 121 343.472656 Z M 89.242188 317.148438 " clip-rule="nonzero"/></clipPath><clipPath id="5e18f24296"><path d="M 89.242188 317.148438 L 280.222656 86.761719 L 311.980469 113.089844 L 121 343.472656 Z M 89.242188 317.148438 " clip-rule="nonzero"/></clipPath><clipPath id="095ccbea30"><path d="M 89.242188 317.148438 L 280.222656 86.761719 L 311.980469 113.089844 L 121 343.472656 Z M 89.242188 317.148438 " clip-rule="nonzero"/></clipPath><clipPath id="8e402aad07"><path d="M 157.511719 50.199219 L 217.511719 50.199219 L 217.511719 337.449219 L 157.511719 337.449219 Z M 157.511719 50.199219 " clip-rule="nonzero"/></clipPath></defs><g clip-path="url(#e6ab463b09)"><g mask="url(#0de873ae75)"><g transform="matrix(1, 0, 0, 1, 24, 32)"><g clip-path="url(#d45ec83cfa)"><g clip-path="url(#61ca335406)"><path fill="#dcaaaa" d="M 302.210938 127.628906 C 296.207031 109.71875 286.863281 93.015625 274.71875 78.714844 C 262.570312 64.28125 247.625 52.253906 230.808594 43.566406 C 213.992188 34.746094 195.304688 29.402344 176.085938 27.929688 C 156.867188 26.460938 137.25 28.734375 118.832031 35.28125 C 118.832031 35.414062 118.832031 35.550781 118.5625 35.816406 C 118.03125 36.351562 116.960938 37.019531 115.628906 37.554688 C 114.292969 38.222656 112.824219 38.757812 111.355469 39.292969 C 103.214844 42.230469 95.339844 46.105469 87.734375 50.515625 C 74.121094 59.472656 62.375 70.964844 52.765625 83.925781 C 54.632812 81.253906 56.769531 78.847656 58.773438 76.308594 C 60.90625 73.90625 63.042969 71.5 65.3125 69.226562 C 69.714844 64.550781 74.652344 60.40625 79.726562 56.664062 C 81.195312 55.460938 82.660156 54.527344 83.730469 53.992188 C 84.796875 53.457031 85.464844 53.324219 85.597656 53.722656 C 85.597656 54.125 85.0625 54.792969 83.996094 55.863281 C 83.0625 56.933594 81.59375 58.132812 80.125 59.335938 C 66.78125 69.894531 54.902344 83.925781 46.226562 99.164062 C 37.417969 114.398438 31.8125 130.835938 28.207031 145.804688 C 25.671875 165.316406 27.542969 185.226562 33.28125 203.539062 C 39.019531 221.847656 48.761719 238.683594 61.175781 252.449219 C 73.585938 266.214844 88.800781 277.175781 105.085938 284.390625 C 121.367188 291.605469 138.851562 295.214844 155.800781 295.347656 C 157.136719 295.347656 158.738281 295.484375 159.402344 295.75 C 160.339844 296.015625 160.070312 296.285156 158.871094 296.285156 C 141.121094 297.085938 122.300781 294.011719 104.285156 286.394531 C 95.339844 282.519531 86.53125 277.707031 78.390625 271.695312 C 70.25 265.679688 62.507812 258.597656 55.703125 250.578125 C 48.894531 242.5625 42.890625 233.738281 38.085938 223.984375 C 33.28125 214.363281 29.410156 204.070312 26.875 193.246094 C 24.472656 182.421875 23.269531 171.328125 23.402344 159.96875 L 23.402344 157.832031 L 23.539062 155.691406 L 23.804688 151.417969 C 24.070312 148.609375 24.339844 145.804688 24.738281 142.996094 C 25.671875 137.382812 26.605469 131.769531 28.207031 126.292969 L 29.277344 122.28125 L 30.609375 118.273438 C 31.410156 115.601562 32.480469 113.0625 33.546875 110.523438 C 26.742188 124.957031 22.335938 140.992188 20.867188 157.964844 C 21.269531 159.703125 21.402344 162.507812 21.402344 165.851562 C 21.667969 173.867188 22.601562 181.753906 24.070312 189.503906 C 24.070312 189.105469 24.203125 188.96875 24.339844 188.835938 C 24.871094 188.835938 25.804688 191.644531 26.472656 194.984375 C 30.609375 214.363281 38.886719 232.671875 50.496094 248.707031 C 50.765625 249.109375 51.03125 249.511719 51.296875 249.777344 C 66.246094 269.15625 86.132812 284.65625 108.421875 294.011719 C 130.710938 303.636719 155.265625 307.109375 179.15625 304.4375 C 180.625 304.304688 182.09375 304.035156 183.5625 303.902344 C 185.027344 303.636719 186.496094 303.5 187.964844 303.234375 L 192.371094 302.296875 L 194.640625 301.898438 L 196.773438 301.363281 L 201.179688 300.292969 L 205.449219 298.957031 C 208.386719 298.15625 211.054688 296.953125 213.992188 296.015625 C 219.597656 293.746094 225.070312 291.472656 230.273438 288.535156 C 232.941406 287.195312 235.480469 285.59375 238.015625 284.125 C 239.347656 283.320312 240.550781 282.519531 241.75 281.71875 C 242.953125 280.914062 244.289062 280.113281 245.488281 279.179688 C 264.972656 265.28125 280.589844 246.300781 290.734375 224.785156 C 291.132812 223.449219 291.933594 221.710938 292.601562 220.910156 C 293.269531 219.976562 293.535156 220.242188 293.136719 221.578125 C 293.402344 221.578125 293.804688 221.445312 293.667969 221.847656 C 287.53125 238.550781 278.320312 253.921875 266.175781 267.417969 C 253.898438 280.78125 238.546875 292.140625 220.128906 299.894531 C 207.453125 305.238281 194.105469 308.714844 180.492188 310.316406 C 194.636719 309.515625 208.117188 306.976562 220.128906 303.636719 C 236.945312 296.820312 252.5625 286.796875 265.773438 274.5 C 278.988281 262.207031 290.066406 247.90625 298.609375 232.539062 L 297.671875 233.605469 C 298.339844 232.269531 299.140625 230.933594 299.808594 230 C 300.476562 229.0625 300.875 228.394531 301.144531 228.527344 C 301.410156 228.527344 301.410156 229.0625 301.144531 230.132812 C 300.875 231.066406 300.34375 232.402344 299.542969 233.875 C 296.070312 241.359375 291.933594 248.707031 287.128906 255.65625 C 282.324219 262.605469 276.851562 269.023438 270.980469 275.167969 C 264.972656 281.183594 258.566406 286.796875 251.628906 291.742188 C 244.6875 296.6875 237.214844 301.097656 229.472656 304.835938 C 198.375 319.9375 161.671875 323.546875 127.507812 315.128906 C 110.421875 310.851562 94.007812 303.636719 79.324219 293.746094 C 64.644531 283.855469 51.566406 271.425781 40.886719 257.128906 C 30.210938 242.828125 22.070312 226.523438 16.863281 209.417969 C 11.527344 192.3125 9.523438 174.136719 10.191406 156.09375 C 11.390625 127.496094 21 99.429688 37.152344 76.042969 C 53.167969 52.523438 75.855469 33.8125 101.882812 22.183594 C 105.75 20.3125 109.488281 19.378906 112.15625 18.710938 C 114.828125 18.175781 116.695312 18.175781 116.828125 18.84375 C 116.960938 20.046875 110.824219 23.121094 103.347656 26.59375 C 78.523438 37.820312 57.171875 55.996094 41.957031 78.316406 C 26.605469 100.632812 17.398438 126.960938 15.796875 154.089844 C 15.128906 165.984375 15.53125 178.011719 17.664062 189.636719 C 19.667969 201.265625 23.136719 212.757812 27.675781 223.582031 C 20.734375 206.476562 17.398438 188.167969 17.398438 169.992188 C 16.996094 163.042969 17.265625 156.09375 17.933594 149.144531 C 18.597656 142.195312 19.933594 135.246094 21.535156 128.296875 C 23.402344 121.480469 25.539062 114.664062 28.34375 108.117188 C 31.144531 101.566406 34.347656 95.152344 38.085938 89.007812 C 47.027344 74.039062 58.371094 61.207031 71.316406 50.785156 C 84.261719 40.359375 98.8125 32.074219 114.425781 26.460938 C 129.910156 20.847656 146.324219 17.640625 163.140625 17.105469 C 171.550781 16.839844 179.957031 17.238281 188.367188 18.308594 C 196.773438 19.378906 205.316406 21.25 213.589844 23.65625 C 229.875 28.464844 244.289062 35.550781 257.234375 43.835938 C 263.640625 48.113281 269.644531 52.65625 275.382812 57.601562 C 280.988281 62.542969 286.328125 67.890625 291.132812 73.503906 C 296.070312 79.117188 300.476562 85.128906 304.480469 91.410156 C 308.484375 97.691406 312.085938 104.507812 315.289062 111.457031 C 318.359375 118.539062 321.03125 125.890625 323.03125 133.640625 C 325.035156 141.394531 326.5 149.414062 327.300781 157.832031 C 327.570312 160.773438 327.4375 164.113281 327.035156 165.183594 C 326.902344 165.714844 326.636719 165.714844 326.367188 165.183594 C 326.101562 164.648438 325.96875 163.578125 325.835938 162.109375 C 323.164062 129.902344 310.753906 100.765625 291.667969 77.378906 C 286.996094 71.5 281.65625 66.019531 276.050781 60.941406 C 273.25 58.269531 270.3125 55.996094 267.375 53.457031 C 265.910156 52.253906 264.308594 51.183594 262.839844 49.984375 C 261.371094 48.78125 259.636719 47.84375 258.167969 46.640625 C 251.761719 42.363281 245.089844 38.355469 238.015625 35.015625 C 230.941406 31.671875 223.46875 28.734375 215.859375 26.460938 C 199.445312 21.515625 182.625 19.378906 165.945312 19.644531 C 149.261719 20.046875 132.84375 22.988281 117.230469 28.601562 C 101.613281 34.210938 86.933594 42.363281 73.851562 52.921875 C 60.773438 63.480469 49.429688 76.308594 40.488281 91.011719 C 38.085938 95.019531 35.816406 99.027344 33.8125 103.171875 C 37.417969 96.488281 41.421875 90.074219 45.960938 84.195312 C 50.496094 78.316406 55.433594 72.835938 60.640625 67.757812 C 80.394531 47.175781 105.886719 32.875 133.246094 26.730469 C 160.605469 20.582031 189.566406 22.453125 216.125 32.339844 C 226.402344 36.21875 236.28125 41.027344 245.355469 46.910156 C 254.5625 52.789062 262.972656 59.738281 270.578125 67.355469 C 272.582031 69.226562 274.316406 71.363281 276.183594 73.371094 C 278.054688 75.375 279.65625 77.511719 281.390625 79.652344 C 284.726562 83.925781 287.929688 88.472656 290.734375 93.148438 C 296.339844 102.503906 301.011719 112.527344 304.347656 123.21875 C 305.148438 125.890625 305.949219 128.5625 306.082031 130.703125 C 306.347656 132.839844 306.347656 134.445312 305.949219 135.113281 C 305.679688 135.648438 305.015625 135.113281 304.347656 133.777344 C 303.8125 132.441406 303.011719 130.300781 302.210938 127.628906 Z M 106.820312 301.097656 C 97.34375 297.488281 88.265625 292.808594 79.726562 287.195312 C 96.140625 298.691406 114.960938 306.84375 134.578125 310.984375 C 154.199219 315.128906 174.753906 315.261719 194.503906 311.253906 C 179.957031 313.523438 164.875 313.925781 149.929688 312.320312 C 135.113281 310.585938 120.433594 306.84375 106.820312 301.097656 Z M 106.820312 301.097656 " fill-opacity="1" fill-rule="nonzero"/></g><g clip-path="url(#beefe4eccc)"><path fill="#dcaaaa" d="M 151.929688 323.679688 C 139.917969 322.34375 128.039062 319.539062 116.5625 315.796875 C 105.085938 312.054688 94.140625 307.375 83.996094 302.296875 C 83.0625 301.765625 82.394531 301.628906 82.796875 302.03125 C 83.195312 302.566406 84.261719 303.234375 85.332031 303.769531 C 95.074219 308.578125 105.75 313.125 116.828125 316.597656 C 127.90625 320.207031 139.652344 322.878906 151.128906 324.214844 C 152.464844 324.347656 153.664062 324.347656 153.796875 324.082031 C 154.066406 324.082031 153.132812 323.816406 151.929688 323.679688 Z M 151.929688 323.679688 " fill-opacity="1" fill-rule="nonzero"/></g><g clip-path="url(#f2c87328dd)"><path fill="#dcaaaa" d="M 69.847656 294.414062 C 54.234375 283.988281 40.085938 270.359375 28.875 254.1875 C 17.796875 238.015625 9.390625 219.308594 4.984375 199.527344 C 0.582031 179.75 -0.0859375 158.902344 3.25 138.453125 C 6.585938 118.007812 14.0625 98.09375 25.003906 80.453125 C 42.757812 51.585938 68.914062 29.535156 98.679688 16.304688 C 100.546875 15.503906 102.414062 14.566406 104.285156 13.898438 L 110.023438 11.761719 C 113.894531 10.425781 117.761719 9.089844 121.632812 8.152344 C 125.503906 6.949219 129.507812 6.148438 133.511719 5.347656 C 137.515625 4.679688 141.519531 3.875 145.65625 3.476562 C 149.660156 2.941406 153.796875 2.671875 157.9375 2.40625 C 159.9375 2.273438 162.074219 2.273438 164.074219 2.273438 C 166.078125 2.140625 168.210938 2.273438 170.214844 2.273438 C 172.214844 2.40625 174.351562 2.273438 176.355469 2.40625 C 178.355469 2.539062 180.492188 2.671875 182.492188 2.808594 C 184.496094 2.941406 186.628906 3.207031 188.632812 3.476562 C 189.699219 3.609375 190.632812 3.742188 191.703125 3.875 L 194.773438 4.410156 C 205.582031 6.148438 216.261719 8.953125 226.269531 12.5625 C 236.414062 16.171875 245.890625 20.582031 254.832031 25.527344 C 256.300781 26.328125 257.367188 26.730469 256.964844 26.195312 C 256.433594 25.527344 254.964844 24.457031 253.230469 23.519531 C 234.542969 13.097656 213.992188 6.015625 192.636719 2.808594 C 171.28125 -0.402344 149.394531 0.402344 128.039062 5.210938 C 106.820312 10.023438 86.398438 19.109375 68.515625 31.941406 C 50.898438 44.371094 35.550781 60.675781 24.203125 79.515625 C 13.261719 97.425781 5.785156 117.472656 2.582031 138.1875 C -0.753906 158.902344 -0.0859375 180.015625 4.453125 200.195312 C 8.988281 220.375 17.53125 239.351562 29.144531 255.65625 C 40.621094 271.960938 55.167969 285.726562 71.183594 296.152344 C 71.984375 296.6875 72.652344 296.820312 72.386719 296.417969 C 71.851562 295.882812 70.648438 294.949219 69.847656 294.414062 Z M 69.847656 294.414062 " fill-opacity="1" fill-rule="nonzero"/></g><path fill="#dcaaaa" d="M 128.707031 6.683594 C 117.363281 9.488281 106.285156 13.632812 95.742188 18.84375 C 85.332031 24.054688 75.320312 30.335938 66.246094 37.6875 C 57.035156 44.902344 48.496094 53.191406 41.019531 62.144531 C 33.414062 71.230469 26.742188 81.121094 21 91.679688 C 14.730469 103.039062 10.191406 115.199219 7.253906 127.761719 C 4.320312 140.324219 2.851562 153.421875 3.519531 166.917969 C 3.785156 175.875 5.121094 184.425781 6.855469 192.847656 C 8.589844 201.132812 10.992188 209.148438 13.792969 216.902344 C 15.128906 220.777344 16.863281 224.652344 18.464844 228.394531 C 19.398438 230.265625 20.199219 232.136719 21.136719 234.007812 C 22.070312 235.878906 23.003906 237.75 24.070312 239.621094 C 28.074219 246.972656 32.480469 254.1875 37.683594 261.269531 C 38.351562 262.207031 39.152344 263.007812 39.554688 263.140625 C 39.6875 263.007812 39.285156 262.339844 38.617188 261.402344 C 27.675781 246.035156 19.132812 229.597656 13.261719 212.222656 C 7.523438 194.851562 4.585938 176.40625 4.984375 157.296875 C 5.253906 148.476562 6.320312 139.65625 8.054688 130.96875 C 9.789062 122.550781 12.328125 114.128906 15.53125 105.976562 C 21.9375 89.675781 31.144531 74.707031 42.222656 61.476562 C 64.777344 35.148438 95.207031 16.171875 129.109375 7.351562 C 130.574219 6.949219 131.375 6.683594 131.375 6.414062 C 131.242188 6.28125 130.042969 6.414062 128.707031 6.683594 Z M 128.707031 6.683594 " fill-opacity="1" fill-rule="nonzero"/><path fill="#dcaaaa" d="M 31.277344 152.21875 C 30.078125 163.3125 30.210938 174.804688 31.945312 186.03125 C 33.679688 197.257812 36.882812 208.347656 41.554688 218.636719 C 46.226562 228.929688 52.230469 238.285156 59.039062 246.4375 C 65.980469 254.589844 73.71875 261.402344 81.59375 266.882812 C 82.394531 267.417969 82.660156 267.417969 82.261719 266.75 C 81.859375 266.214844 80.792969 265.28125 80.125 264.746094 C 72.386719 259.265625 64.910156 252.449219 58.503906 244.296875 C 52.097656 236.144531 46.359375 226.925781 42.089844 216.902344 C 37.816406 206.878906 34.75 196.1875 33.148438 185.363281 C 31.679688 174.535156 31.410156 163.445312 32.480469 152.753906 C 32.613281 150.75 32.746094 148.878906 32.347656 148.609375 C 32.078125 148.609375 31.546875 150.082031 31.277344 152.21875 Z M 31.277344 152.21875 " fill-opacity="1" fill-rule="nonzero"/><path fill="#dcaaaa" d="M 163.941406 320.472656 C 151.929688 320.339844 139.917969 318.738281 128.171875 315.796875 C 116.5625 312.855469 105.21875 308.445312 94.539062 302.964844 C 83.863281 297.488281 73.988281 290.671875 64.777344 283.054688 C 55.703125 275.4375 47.425781 266.75 40.085938 257.394531 C 26.875 238.820312 17.664062 217.703125 12.992188 195.519531 C 12.460938 192.3125 11.527344 189.773438 11.125 189.90625 C 10.589844 189.90625 10.726562 192.710938 11.257812 195.917969 C 13.394531 207.277344 16.863281 218.371094 21.402344 228.929688 C 21.136719 228.660156 20.867188 228.660156 20.867188 228.796875 C 4.320312 191.644531 2.851562 147.941406 16.996094 109.453125 C 17.796875 107.316406 18.199219 105.710938 17.933594 105.578125 C 17.664062 105.445312 16.730469 107.046875 15.929688 109.1875 C 8.457031 129.230469 5.253906 150.882812 6.320312 172.132812 C 7.386719 193.378906 12.859375 214.363281 22.203125 233.339844 C 22.738281 234.808594 23.539062 236.414062 24.472656 238.152344 C 28.609375 246.035156 33.414062 253.519531 38.886719 260.46875 C 44.222656 267.417969 50.230469 273.832031 56.636719 279.847656 C 69.449219 291.742188 84.261719 301.496094 100.546875 308.714844 C 112.15625 313.792969 124.167969 317.667969 136.316406 320.074219 C 148.59375 322.476562 160.871094 323.414062 173.285156 323.148438 C 185.695312 322.878906 197.976562 321.007812 209.855469 317.667969 C 221.867188 314.328125 233.476562 309.648438 244.289062 303.5 C 261.503906 293.746094 276.183594 280.246094 288.597656 264.746094 C 293.804688 258.332031 298.742188 251.246094 302.878906 244.164062 C 305.015625 240.554688 306.75 236.949219 308.484375 233.339844 C 310.085938 229.597656 311.554688 225.988281 312.753906 222.378906 C 319.160156 202.335938 320.230469 183.355469 318.359375 165.714844 C 318.226562 164.648438 318.09375 164.511719 317.960938 165.316406 C 317.828125 165.984375 317.691406 167.453125 317.828125 168.253906 C 318.628906 177.074219 318.628906 186.429688 317.425781 195.917969 C 316.359375 205.273438 314.355469 214.761719 311.820312 223.582031 C 305.148438 240.289062 295.671875 255.792969 284.058594 269.289062 C 272.316406 282.785156 258.566406 294.28125 243.21875 303.5 C 237.082031 306.707031 230.675781 309.515625 224.269531 311.652344 C 217.863281 313.925781 211.320312 315.527344 204.78125 317 C 191.433594 319.40625 177.957031 320.742188 163.941406 320.472656 Z M 163.941406 320.472656 " fill-opacity="1" fill-rule="nonzero"/></g></g></g></g><g clip-path="url(#ab0cc30339)"><g clip-path="url(#5f031fb158)"><g clip-path="url(#3ef1460170)"><path fill="#000000" d="M 150.605469 171.625 C 154.011719 161.429688 163.625 143.597656 140.277344 120.460938 C 117.746094 98.144531 90.832031 88.308594 77.953125 97.804688 C 78.105469 97.671875 78.246094 97.527344 78.402344 97.398438 C 78.273438 97.507812 78.144531 97.605469 78.019531 97.71875 C 77.78125 97.898438 77.558594 98.101562 77.332031 98.296875 C 77.085938 98.5 76.835938 98.695312 76.601562 98.90625 C 76.382812 99.078125 76.179688 99.261719 75.972656 99.441406 C 75.746094 99.625 75.515625 99.804688 75.300781 100 C 75.097656 100.152344 74.914062 100.328125 74.71875 100.492188 C 74.890625 100.351562 75.074219 100.230469 75.25 100.097656 C 64.441406 110.695312 68.652344 139.519531 86.820312 165.367188 C 105.714844 192.242188 124.011719 185.878906 134.273438 185.34375 C 141.855469 184.953125 147.589844 192.679688 147.589844 192.679688 C 147.589844 192.679688 152.367188 199.011719 162.21875 212.769531 C 171.652344 225.9375 220.550781 295.277344 230.417969 307.027344 C 239.691406 318.0625 247.0625 329.414062 258.109375 321.457031 C 258 321.570312 257.902344 321.683594 257.785156 321.785156 L 257.578125 321.964844 C 257.988281 321.640625 258.40625 321.292969 258.824219 320.914062 C 259.304688 320.539062 259.789062 320.140625 260.28125 319.691406 L 260.328125 319.644531 C 260.59375 319.433594 260.863281 319.222656 261.136719 318.988281 C 260.933594 319.148438 260.730469 319.289062 260.53125 319.441406 C 272.261719 308.242188 253.265625 290.652344 253.265625 290.652344 C 253.265625 290.652344 184.152344 216.503906 172.351562 204.382812 C 159.582031 191.269531 155.1875 186.296875 155.1875 186.296875 C 155.1875 186.296875 148.152344 178.980469 150.605469 171.625 " fill-opacity="1" fill-rule="nonzero"/></g></g></g><g clip-path="url(#feeb44dabd)"><g clip-path="url(#51e7b3cf10)"><g clip-path="url(#499d853443)"><g clip-path="url(#48daf87bd5)"><path fill="#000000" d="M 89.246094 317.148438 C 106.558594 324.707031 183.3125 265.488281 212.128906 230.722656 C 215.6875 226.429688 230.753906 211.058594 226.449219 207.488281 C 223.785156 205.28125 199.035156 184.703125 199.035156 184.703125 Z M 89.246094 317.148438 " fill-opacity="1" fill-rule="nonzero"/></g></g></g></g><g clip-path="url(#13b244f532)"><g clip-path="url(#ee4e687e0b)"><g clip-path="url(#0dc242e95d)"><g clip-path="url(#3b13d9e8c1)"><path fill="#000000" d="M 285.234375 127.816406 C 303.375 105.933594 278.636719 88.679688 262.441406 108.214844 L 201.074219 182.242188 L 212.550781 191.707031 C 212.550781 191.707031 259.976562 158.285156 285.234375 127.816406 Z M 285.234375 127.816406 " fill-opacity="1" fill-rule="nonzero"/></g></g></g></g><g clip-path="url(#b42c9ad6de)"><g clip-path="url(#e701ffc09a)"><g clip-path="url(#3e853e1c7a)"><g clip-path="url(#52a7c0b9b5)"><path fill="#ffffff" d="M 215.214844 177.328125 C 213.695312 176.070312 213.484375 173.824219 214.738281 172.3125 C 215.992188 170.800781 218.238281 170.59375 219.753906 171.851562 C 221.269531 173.109375 221.484375 175.355469 220.230469 176.867188 C 218.976562 178.378906 216.730469 178.585938 215.214844 177.328125 Z M 215.214844 177.328125 " fill-opacity="1" fill-rule="nonzero"/></g></g></g></g><g clip-path="url(#ec113690a0)"><g clip-path="url(#ec2da1162c)"><g clip-path="url(#5e18f24296)"><g clip-path="url(#095ccbea30)"><path fill="#ffffff" d="M 227.46875 162.542969 C 225.953125 161.285156 225.738281 159.039062 226.992188 157.527344 C 228.246094 156.015625 230.492188 155.808594 232.007812 157.066406 C 233.527344 158.324219 233.738281 160.570312 232.488281 162.082031 C 231.230469 163.59375 228.984375 163.800781 227.46875 162.542969 Z M 227.46875 162.542969 " fill-opacity="1" fill-rule="nonzero"/></g></g></g></g><g clip-path="url(#8e402aad07)"><path fill="#1d1a1e" d="M 197.707031 169.605469 C 197.707031 164.988281 198.835938 160.433594 200.960938 156.359375 L 210.9375 144.113281 C 215.277344 138.804688 217.511719 132.085938 217.273438 125.234375 L 210.894531 53.472656 C 210.832031 51.652344 209.332031 50.199219 207.578125 50.199219 C 205.820312 50.199219 204.433594 51.652344 204.496094 53.472656 L 207.597656 117.238281 C 207.683594 119.753906 205.863281 121.8125 203.542969 121.8125 C 201.222656 121.8125 199.3125 119.753906 199.269531 117.238281 L 197.449219 53.472656 C 197.425781 51.652344 195.972656 50.199219 194.214844 50.199219 C 192.457031 50.199219 191.046875 51.652344 191.046875 53.472656 L 191.699219 117.238281 C 191.722656 119.753906 189.855469 121.8125 187.535156 121.8125 C 185.214844 121.8125 183.347656 119.753906 183.371094 117.238281 L 184.019531 53.472656 C 184 51.652344 182.589844 50.199219 180.832031 50.199219 C 179.074219 50.199219 177.621094 51.652344 177.578125 53.472656 L 175.757812 117.238281 C 175.714844 119.753906 173.804688 121.8125 171.484375 121.8125 C 169.164062 121.8125 167.339844 119.753906 167.425781 117.238281 L 170.53125 53.472656 C 170.59375 51.652344 169.207031 50.199219 167.449219 50.199219 C 165.691406 50.199219 164.195312 51.652344 164.128906 53.472656 L 157.753906 125.234375 C 157.515625 132.085938 159.769531 138.78125 164.085938 144.113281 L 174.066406 156.359375 C 176.210938 160.457031 177.320312 164.988281 177.320312 169.605469 C 177.320312 169.605469 181.960938 238.117188 173.175781 304.246094 C 173.175781 304.246094 166.386719 337.449219 187.492188 337.449219 C 208.597656 337.449219 201.808594 304.246094 201.808594 304.246094 C 193.066406 238.117188 197.707031 169.605469 197.707031 169.605469 Z M 197.707031 169.605469 " fill-opacity="1" fill-rule="nonzero"/></g></svg>